<?xml version="1.0" encoding="UTF-8" standalone="no"?>
<!-- Created with Inkscape (http://www.inkscape.org/) -->

<svg
   xmlns:osb="http://www.openswatchbook.org/uri/2009/osb"
   xmlns:dc="http://purl.org/dc/elements/1.1/"
   xmlns:cc="http://creativecommons.org/ns#"
   xmlns:rdf="http://www.w3.org/1999/02/22-rdf-syntax-ns#"
   xmlns:svg="http://www.w3.org/2000/svg"
   xmlns="http://www.w3.org/2000/svg"
   xmlns:sodipodi="http://sodipodi.sourceforge.net/DTD/sodipodi-0.dtd"
   xmlns:inkscape="http://www.inkscape.org/namespaces/inkscape"
   width="227.69609mm"
   height="73.531693mm"
   viewBox="0 0 22.769609 7.3531694"
   version="1.1"
   id="svg8"
   inkscape:version="0.92.4 5da689c313, 2019-01-14"
   sodipodi:docname="logo.svg"
   inkscape:export-filename="/home/hiro/Downloads/nougat.svg.png"
   inkscape:export-xdpi="500.39999"
   inkscape:export-ydpi="500.39999">
  <defs
     id="defs2">
    <linearGradient
       id="linearGradient7622"
       osb:paint="solid">
      <stop
         style="stop-color:#010101;stop-opacity:1;"
         offset="0"
         id="stop7620" />
    </linearGradient>
  </defs>
  <sodipodi:namedview
     id="base"
     pagecolor="#ffffff"
     bordercolor="#666666"
     borderopacity="1.0"
     inkscape:pageopacity="0.0"
     inkscape:pageshadow="2"
     inkscape:zoom="1.4142136"
     inkscape:cx="722.51412"
     inkscape:cy="-81.035686"
     inkscape:document-units="mm"
     inkscape:current-layer="layer2"
     showgrid="true"
     inkscape:window-width="959"
     inkscape:window-height="1060"
     inkscape:window-x="1920"
     inkscape:window-y="0"
     inkscape:window-maximized="0"
     fit-margin-top="0"
     fit-margin-left="0"
     fit-margin-right="0"
     fit-margin-bottom="0"
     scale-x="0.1"
     inkscape:snap-bbox="true"
     inkscape:bbox-nodes="true"
     inkscape:snap-global="false"
     inkscape:pagecheckerboard="true">
    <inkscape:grid
       type="axonomgrid"
       id="grid5069"
       units="mm"
       empspacing="5"
       gridanglez="10"
       gridanglex="5"
       originx="-7.5678223"
       originy="-12.665277" />
  </sodipodi:namedview>
  <metadata
     id="metadata5">
    <rdf:RDF>
      <cc:Work
         rdf:about="">
        <dc:format>image/svg+xml</dc:format>
        <dc:type
           rdf:resource="http://purl.org/dc/dcmitype/StillImage" />
        <dc:title></dc:title>
      </cc:Work>
    </rdf:RDF>
  </metadata>
  <g
     inkscape:groupmode="layer"
     id="layer2"
     inkscape:label="bg"
     style="display:inline"
     transform="translate(0.01322817,0.11486462)">
    <path
       style="display:inline;fill:#9b7550;fill-opacity:1;stroke:none;stroke-width:0.02645833px;stroke-linecap:butt;stroke-linejoin:miter;stroke-opacity:1"
       d="m 75.810515,98.531024 v 4.999996 l 18.952626,1.65814 3.790526,-0.66837 V 99.520792 L 79.60104,97.862652 Z"
       id="path6812"
       inkscape:connector-curvature="0"
       transform="translate(-75.810514,-97.964186)" />
  </g>
  <g
     inkscape:groupmode="layer"
     id="layer3"
     inkscape:label="extra fill"
     style="display:inline"
     transform="translate(0.01322817,0.11486462)">
    <path
       style="fill:#b89466;fill-opacity:1;stroke:none;stroke-width:0.02645833px;stroke-linecap:butt;stroke-linejoin:miter;stroke-opacity:1"
       d="M 2.4110711e-6,3.5668384 V 4.5668383 L 18.952629,6.2249782 22.743155,5.5566064 V 4.5566065 l -3.790526,0.6683719 z"
       id="path6817"
       inkscape:connector-curvature="0" />
    <path
       inkscape:connector-curvature="0"
       id="path6821"
       d="M 8.6744885e-7,2.5668384 V 3.5668383 L 18.952628,5.2249782 22.743154,4.5566064 V 3.5566065 l -3.790526,0.6683719 z"
       style="fill:#9b7550;fill-opacity:1;stroke:none;stroke-width:0.02645833px;stroke-linecap:butt;stroke-linejoin:miter;stroke-opacity:1" />
    <path
       style="fill:#9b7550;fill-opacity:1;stroke:none;stroke-width:0.02645833px;stroke-linecap:butt;stroke-linejoin:miter;stroke-opacity:1"
       d="M 2.7110711e-6,4.5668384 V 5.5668383 L 18.952629,7.2249782 22.743155,6.5566064 V 5.5566065 l -3.790526,0.6683719 z"
       id="path6823"
       inkscape:connector-curvature="0" />
    <path
       inkscape:connector-curvature="0"
       id="path6825"
       d="M 8.6744924e-7,1.5668385 V 2.5668383 L 18.952626,4.2249782 22.743152,3.5566064 V 2.5566065 l -3.790526,0.6683719 z"
       style="fill:#b89466;fill-opacity:1;stroke:none;stroke-width:0.02645833px;stroke-linecap:butt;stroke-linejoin:miter;stroke-opacity:1" />
    <path
       style="fill:#9b7550;fill-opacity:1;stroke:none;stroke-width:0.02645833px;stroke-linecap:butt;stroke-linejoin:miter;stroke-opacity:1"
       d="M 3.0110726e-6,0.56683857 V 1.5668384 L 18.952629,3.2249783 22.743155,2.5566065 V 1.5566066 l -3.790526,0.6683719 z"
       id="path6827"
       inkscape:connector-curvature="0" />
  </g>
  <g
     inkscape:label="Layer 1"
     inkscape:groupmode="layer"
     id="layer1"
     transform="translate(-75.797286,-97.849322)"
     style="display:inline">
    <path
       style="fill:#e6cfa1;fill-opacity:1;stroke:none;stroke-width:0.02645833px;stroke-linecap:butt;stroke-linejoin:miter;stroke-opacity:1"
       d="m 75.810515,98.531024 3.790525,-0.668372 18.952627,1.65814 -3.790526,0.668368 z"
       id="path6689"
       inkscape:connector-curvature="0" />
    <path
       inkscape:connector-curvature="0"
       id="path6706"
       d="m 73.915252,107.36521 v 5 l 18.95263,1.65814 v -5 z"
       style="fill:none;stroke:none;stroke-width:0.01;stroke-linecap:butt;stroke-linejoin:miter;stroke-miterlimit:4;stroke-dasharray:none;stroke-opacity:1" />
    <path
       sodipodi:nodetypes="ccccc"
       inkscape:connector-curvature="0"
       id="path6708"
       d="m 73.915253,107.36368 3.790525,-0.66684 18.95263,1.6566 -3.790526,0.66991 z"
       style="fill:#e6cfa1;fill-opacity:1;stroke:none;stroke-width:0.01;stroke-linecap:butt;stroke-linejoin:miter;stroke-miterlimit:4;stroke-dasharray:none;stroke-opacity:1" />
    <path
       inkscape:connector-curvature="0"
       id="path6710"
       d="m 96.658406,108.35498 v 5 l -3.790524,0.66837 v -5 z"
       style="fill:none;stroke:none;stroke-width:0.01;stroke-linecap:butt;stroke-linejoin:miter;stroke-miterlimit:4;stroke-dasharray:none;stroke-opacity:1" />
    <path
       sodipodi:nodetypes="ccccc"
       inkscape:connector-curvature="0"
       id="path6712"
       d="m 73.915253,107.36368 v 1 l 18.952629,1.65813 v -1 z"
       style="fill:#b89466;fill-opacity:1;stroke:none;stroke-width:0.01;stroke-linecap:butt;stroke-linejoin:miter;stroke-miterlimit:4;stroke-dasharray:none;stroke-opacity:1" />
    <path
       sodipodi:nodetypes="ccccc"
       style="fill:#9b7550;fill-opacity:1;stroke:none;stroke-width:0.01;stroke-linecap:butt;stroke-linejoin:miter;stroke-miterlimit:4;stroke-dasharray:none;stroke-opacity:1"
       d="m 73.915253,108.36368 -1e-6,1.00153 18.95263,1.65814 v -1.00154 z"
       id="path6714"
       inkscape:connector-curvature="0" />
    <path
       inkscape:connector-curvature="0"
       id="path6716"
       d="m 73.915254,109.36521 v 1 l 18.95263,1.65814 v -1 z"
       style="fill:#e6cfa1;fill-opacity:1;stroke:none;stroke-width:0.01;stroke-linecap:butt;stroke-linejoin:miter;stroke-miterlimit:4;stroke-dasharray:none;stroke-opacity:1" />
    <path
       style="fill:#b89466;fill-opacity:1;stroke:none;stroke-width:0.01;stroke-linecap:butt;stroke-linejoin:miter;stroke-miterlimit:4;stroke-dasharray:none;stroke-opacity:1"
       d="m 73.915254,110.36521 v 1 l 18.95263,1.65814 v -1 z"
       id="path6718"
       inkscape:connector-curvature="0" />
    <path
       inkscape:connector-curvature="0"
       id="path6720"
       d="m 73.915254,111.36521 v 1 l 18.95263,1.65814 v -1 z"
       style="fill:#9b7550;fill-opacity:1;stroke:none;stroke-width:0.01;stroke-linecap:butt;stroke-linejoin:miter;stroke-miterlimit:4;stroke-dasharray:none;stroke-opacity:1" />
    <path
       sodipodi:nodetypes="ccccc"
       inkscape:connector-curvature="0"
       id="path6722"
       d="m 92.867882,110.02181 3.790524,-0.66683 2e-6,-1.00154 -3.790526,0.66837 z"
       style="fill:#c0a178;fill-opacity:1;stroke:none;stroke-width:0.01001148;stroke-linecap:butt;stroke-linejoin:miter;stroke-miterlimit:4;stroke-dasharray:none;stroke-opacity:1" />
    <path
       sodipodi:nodetypes="ccccc"
       style="fill:#ab855d;fill-opacity:1;stroke:none;stroke-width:0.01;stroke-linecap:butt;stroke-linejoin:miter;stroke-miterlimit:4;stroke-dasharray:none;stroke-opacity:1"
       d="m 92.867882,111.02335 3.790524,-0.66837 v -1 l -3.790524,0.66683 z"
       id="path6724"
       inkscape:connector-curvature="0" />
    <path
       inkscape:connector-curvature="0"
       id="path6726"
       d="m 92.867882,112.02335 3.790524,-0.66837 v -1 l -3.790524,0.66837 z"
       style="fill:#ecdab6;fill-opacity:1;stroke:none;stroke-width:0.01;stroke-linecap:butt;stroke-linejoin:miter;stroke-miterlimit:4;stroke-dasharray:none;stroke-opacity:1" />
    <path
       style="fill:#c0a178;fill-opacity:1;stroke:none;stroke-width:0.01;stroke-linecap:butt;stroke-linejoin:miter;stroke-miterlimit:4;stroke-dasharray:none;stroke-opacity:1"
       d="m 92.867882,113.02335 3.790524,-0.66837 v -1 l -3.790524,0.66837 z"
       id="path6728"
       inkscape:connector-curvature="0" />
    <path
       inkscape:connector-curvature="0"
       id="path6730"
       d="m 92.867884,114.02335 3.790524,-0.66837 v -1 l -3.790524,0.66837 z"
       style="fill:#ab855d;fill-opacity:1;stroke:none;stroke-width:0.01;stroke-linecap:butt;stroke-linejoin:miter;stroke-miterlimit:4;stroke-dasharray:none;stroke-opacity:1" />
    <path
       inkscape:connector-curvature="0"
       id="path6732"
       d="m 73.915253,107.26368 3.790525,-0.66838 18.952627,1.65814 -3.790526,0.66837 z"
       style="fill:none;stroke:none;stroke-width:0.02645833px;stroke-linecap:butt;stroke-linejoin:miter;stroke-opacity:1" />
    <path
       style="fill:#c0a178;fill-opacity:1;stroke:none;stroke-width:0.02645833px;stroke-linecap:butt;stroke-linejoin:miter;stroke-opacity:1"
       d="m 106.13472,102.18405 3.79053,-0.66837 v -1 l -3.79053,0.66837 z"
       id="path6736"
       inkscape:connector-curvature="0" />
    <path
       inkscape:connector-curvature="0"
       id="path6778"
       d="m 75.810515,98.531024 3.790525,-0.668372 18.952627,1.65814 -3.790526,0.668368 z"
       style="fill:#c0a178;fill-opacity:1;stroke:none;stroke-width:0.02645833px;stroke-linecap:butt;stroke-linejoin:miter;stroke-opacity:1"
       inkscape:export-xdpi="96"
       inkscape:export-ydpi="96" />
    <path
       inkscape:connector-curvature="0"
       id="path6782"
       d="m 94.763143,102.18917 3.79053,-0.66837 v -1 l -3.79053,0.66837 z"
       style="fill:#c0a178;fill-opacity:1;stroke:none;stroke-width:0.02645833px;stroke-linecap:butt;stroke-linejoin:miter;stroke-opacity:1"
       inkscape:export-xdpi="96"
       inkscape:export-ydpi="96" />
    <path
       inkscape:export-ydpi="96"
       inkscape:export-xdpi="96"
       style="fill:#c0a178;fill-opacity:1;stroke:none;stroke-width:0.02645833px;stroke-linecap:butt;stroke-linejoin:miter;stroke-opacity:1"
       d="m 102.34419,107.35242 3.79053,-0.66837 v -0.99999 l -3.79053,0.66836 z"
       id="path6792"
       inkscape:connector-curvature="0" />
    <path
       inkscape:export-ydpi="96"
       inkscape:export-xdpi="96"
       style="fill:#ab855d;fill-opacity:1;stroke:none;stroke-width:0.02645833px;stroke-linecap:butt;stroke-linejoin:miter;stroke-opacity:1"
       d="m 94.763143,101.18917 3.79053,-0.66837 v -0.999995 l -3.79053,0.668365 z"
       id="path6794"
       inkscape:connector-curvature="0" />
    <path
       inkscape:connector-curvature="0"
       id="path6796"
       d="m 98.553671,109.02079 3.790519,-0.66837 v -0.99999 l -3.790519,0.66836 z"
       style="fill:#ab855d;fill-opacity:1;stroke:none;stroke-width:0.02645833px;stroke-linecap:butt;stroke-linejoin:miter;stroke-opacity:1"
       inkscape:export-xdpi="96"
       inkscape:export-ydpi="96" />
    <path
       inkscape:export-ydpi="96"
       inkscape:export-xdpi="96"
       style="fill:#ecdab6;fill-opacity:1;stroke:none;stroke-width:0.02645833px;stroke-linecap:butt;stroke-linejoin:miter;stroke-opacity:1"
       d="m 100.44893,103.68661 3.79053,-0.66837 v -0.99999 l -3.79053,0.66836 z"
       id="path6798"
       inkscape:connector-curvature="0" />
    <flowRoot
       xml:space="preserve"
       id="flowRoot6800"
       style="font-style:normal;font-variant:normal;font-weight:normal;font-stretch:normal;font-size:40px;line-height:1.25;font-family:FreeMono;-inkscape-font-specification:FreeMono;letter-spacing:0px;word-spacing:0px;fill:#000000;fill-opacity:1;stroke:none"
       transform="matrix(0.02645833,0,0,0.02645833,75.810514,97.964187)"><flowRegion
         id="flowRegion6802"
         style="font-style:normal;font-variant:normal;font-weight:normal;font-stretch:normal;font-family:FreeMono;-inkscape-font-specification:FreeMono"><rect
           id="rect6804"
           width="143.26396"
           height="88.124527"
           x="2.8811526e-05"
           y="21.423773"
           style="font-style:normal;font-variant:normal;font-weight:normal;font-stretch:normal;font-family:FreeMono;-inkscape-font-specification:FreeMono" /></flowRegion><flowPara
         id="flowPara6806" /></flowRoot>    <path
       inkscape:export-ydpi="96"
       inkscape:export-xdpi="96"
       style="fill:#c0a178;fill-opacity:1;stroke:none;stroke-width:0.02645833px;stroke-linecap:butt;stroke-linejoin:miter;stroke-opacity:1"
       d="m 94.763143,104.18916 3.79053,-0.66837 v -1 l -3.79053,0.66837 z"
       id="path7612"
       inkscape:connector-curvature="0" />
    <path
       inkscape:connector-curvature="0"
       id="path7614"
       d="m 94.763143,103.18916 3.79053,-0.66837 v -0.99999 l -3.79053,0.66836 z"
       style="fill:#ab855d;fill-opacity:1;stroke:none;stroke-width:0.02645833px;stroke-linecap:butt;stroke-linejoin:miter;stroke-opacity:1"
       inkscape:export-xdpi="96"
       inkscape:export-ydpi="96" />
    <path
       inkscape:export-ydpi="96"
       inkscape:export-xdpi="96"
       style="fill:#ab855d;fill-opacity:1;stroke:none;stroke-width:0.02645833px;stroke-linecap:butt;stroke-linejoin:miter;stroke-opacity:1"
       d="m 94.763139,105.18916 3.79053,-0.66837 v -0.99999 l -3.79053,0.66836 z"
       id="path7616"
       inkscape:connector-curvature="0" />
  </g>
  <g
     inkscape:groupmode="layer"
     id="layer4"
     inkscape:label="text"
     style="display:inline"
     transform="translate(0.01322817,0.11486462)">
    <g
       aria-label="Klausurnougat"
       style="font-style:normal;font-weight:normal;font-size:1.05833316px;line-height:1.25;font-family:sans-serif;letter-spacing:0px;word-spacing:0px;fill:#fcf9f4;fill-opacity:1;stroke:#e1d2be;stroke-width:0.07272552;stroke-linecap:round;stroke-linejoin:bevel;stroke-miterlimit:4;stroke-dasharray:none;stroke-dashoffset:0.72725523;stroke-opacity:1"
       id="text7389"
       transform="matrix(0.96252312,0,0,0.96252312,0.36621565,0.18572992)">
      <path
         id="path7391"
         style="font-style:normal;font-variant:normal;font-weight:bold;font-stretch:normal;font-size:2.11666679px;font-family:FreeMono;-inkscape-font-specification:'FreeMono Bold';fill:#fcf9f4;fill-opacity:1;stroke:#e1d2be;stroke-width:0.07272552;stroke-linecap:round;stroke-linejoin:bevel;stroke-miterlimit:4;stroke-dasharray:none;stroke-dashoffset:0.72725523;stroke-opacity:1"
         d="m 0.6926723,1.9555063 c 0,-0.1530984 -0.0761451,-0.1889218 -0.1621146,-0.1964432 0,0 -0.36844233,-0.032235 -0.36844233,-0.032235 C 0.06632038,1.7184476 7.7658594e-7,1.7454522 7.7658594e-7,1.8949054 7.7658594e-7,2.044358 0.07123291,2.0833975 0.16211537,2.0913487 c 0,0 0.0368442,0.00322 0.0368442,0.00322 0,0 0,1.3961116 0,1.3961116 0,0 -0.0368442,-0.00322 -0.0368442,-0.00322 C 0.07123291,3.4795091 7.7658594e-7,3.5060839 7.7658594e-7,3.655537 c 0,0.076549 0.0245628534141,0.1844089 0.16211459341406,0.1964431 0,0 0.36844233,0.032234 0.36844233,0.032234 0.095795,0.00838 0.1621146,-0.029559 0.1621146,-0.1680767 0,-0.1530984 -0.0761451,-0.1889218 -0.1621146,-0.1964431 0,0 -0.0859699,-0.00752 -0.0859699,-0.00752 0,0 0,-0.3936818 0,-0.3936818 0,0 0.1473769,-0.1730113 0.1473769,-0.1730113 0.14983322,0.082368 0.30703529,0.4497054 0.4224805,0.981069 0,0 0.270191,0.023639 0.270191,0.023639 0.095795,0.00838 0.1621146,-0.029559 0.1621146,-0.1680768 0,-0.1530984 -0.076145,-0.1889217 -0.1621146,-0.1964431 0,0 -0.078601,-0.00688 -0.078601,-0.00688 C 1.0930461,3.1497081 0.94075671,2.8338328 0.79092349,2.7040778 c 0,0 0.43230561,-0.5198937 0.43230561,-0.5198937 0.1007072,0.00881 0.1522895,-0.048644 0.1522895,-0.1689365 0,-0.1458086 -0.06632,-0.1880622 -0.1621146,-0.1964431 0,0 -0.24562823,-0.02149 -0.24562823,-0.02149 -0.095795,-0.00838 -0.16211459,0.036849 -0.16211459,0.171722 0,0.083839 0.0245632,0.1370219 0.0761451,0.1706958 0,0 -0.43721819,0.5194639 -0.43721819,0.5194639 0,0 0,-0.5431347 0,-0.5431347 0,0 0.0859695,0.00752 0.0859695,0.00752 0.0908828,0.00795 0.16211459,-0.018624 0.16211459,-0.1680769 0,0 1.2e-7,0 1.2e-7,0"
         inkscape:connector-curvature="0" />
      <path
         id="path7393"
         style="font-style:normal;font-variant:normal;font-weight:bold;font-stretch:normal;font-size:2.11666679px;font-family:FreeMono;-inkscape-font-specification:'FreeMono Bold';fill:#fcf9f4;fill-opacity:1;stroke:#e1d2be;stroke-width:0.07272552;stroke-linecap:round;stroke-linejoin:bevel;stroke-miterlimit:4;stroke-dasharray:none;stroke-dashoffset:0.72725523;stroke-opacity:1"
         d="m 1.6997442,1.8978058 c 0,0.1494526 0.073688,0.1887068 0.1645708,0.196658 0,0 0.1915899,0.016762 0.1915899,0.016762 0,0 0,1.5419197 0,1.5419197 0,0 -0.2996663,-0.026217 -0.2996663,-0.026217 -0.095795,-0.00838 -0.1621146,0.018624 -0.1621146,0.1680767 0,0.076549 0.024563,0.1844089 0.1621146,0.1964431 0,0 0.844961,0.073924 0.844961,0.073924 0.095795,0.00838 0.1621146,-0.029559 0.1621146,-0.1680767 0,-0.1530984 -0.076145,-0.1889218 -0.1621146,-0.1964431 0,0 -0.2996665,-0.026217 -0.2996665,-0.026217 0,0 0,-1.9064397 0,-1.9064397 0,0 -0.4372181,-0.038252 -0.4372181,-0.038252 -0.095795,-0.00838 -0.1645708,0.014763 -0.1645708,0.1678621 0,0 0,0 0,0"
         inkscape:connector-curvature="0" />
      <path
         id="path7395"
         style="font-style:normal;font-variant:normal;font-weight:bold;font-stretch:normal;font-size:2.11666679px;font-family:FreeMono;-inkscape-font-specification:'FreeMono Bold';fill:#fcf9f4;fill-opacity:1;stroke:#e1d2be;stroke-width:0.07272552;stroke-linecap:round;stroke-linejoin:bevel;stroke-miterlimit:4;stroke-dasharray:none;stroke-dashoffset:0.72725523;stroke-opacity:1"
         d="m 3.0187637,3.6681258 c 0,0.2697447 0.1989589,0.5095086 0.4421307,0.5307834 0.1449207,0.012679 0.2898413,-0.025674 0.4077429,-0.10649 0,0 0,0.083839 0,0.083839 0,0 0.287385,0.025143 0.287385,0.025143 0.090883,0.00795 0.1621146,-0.022269 0.1621146,-0.1680767 0,-0.1458086 -0.06632,-0.1880622 -0.1621146,-0.1964432 0,0 -0.039301,-0.00344 -0.039301,-0.00344 0,0 0,-0.7363299 0,-0.7363299 0,-0.3390036 -0.1817649,-0.555392 -0.4838876,-0.5818243 -0.122814,-0.010745 -0.304579,0.020741 -0.4224805,0.072394 -0.049125,0.021219 -0.073688,0.070102 -0.073688,0.1466515 0,0.1057102 0.051582,0.190418 0.1203578,0.1964352 0.078601,0.00688 0.2063277,-0.065788 0.38318,-0.050315 0.157202,0.013753 0.2284342,0.074663 0.2284342,0.1986001 0,0 0,0.083839 0,0.083839 C 3.7679301,3.1285654 3.691785,3.110968 3.613184,3.1040913 3.2447417,3.0718568 3.0187637,3.3509927 3.0187637,3.6681251 c 0,0 0,7e-7 0,7e-7 m 0.8523299,0.016245 C 3.735998,3.7964892 3.5984463,3.8464228 3.4658071,3.8348184 3.3601866,3.8255778 3.2791296,3.7565184 3.2791296,3.6763235 c 0,-0.1385171 0.1522895,-0.2527761 0.3193167,-0.2381631 0.083514,0.00731 0.174396,0.029844 0.2726473,0.06395 0,0 0,0.1822606 0,0.1822606"
         inkscape:connector-curvature="0" />
      <path
         id="path7397"
         style="font-style:normal;font-variant:normal;font-weight:bold;font-stretch:normal;font-size:2.11666679px;font-family:FreeMono;-inkscape-font-specification:'FreeMono Bold';fill:#fcf9f4;fill-opacity:1;stroke:#e1d2be;stroke-width:0.07272552;stroke-linecap:round;stroke-linejoin:bevel;stroke-miterlimit:4;stroke-dasharray:none;stroke-dashoffset:0.72725523;stroke-opacity:1"
         d="m 5.2859083,3.0718216 c 0,0 0.024563,0.00215 0.024563,0.00215 0,0 0.08597,0.00752 0.08597,0.00752 0,0 0,0.6634265 0,0.6634265 C 5.2687143,3.9342298 5.2073072,3.9762449 5.0844931,3.9655 4.9371162,3.9526062 4.8683403,3.8627501 4.8683403,3.6841347 c 0,0 0,-1.0133656 0,-1.0133656 0,0 -0.2849286,-0.024928 -0.2849286,-0.024928 -0.095795,-0.00838 -0.1621146,0.018624 -0.1621146,0.1680769 0,0.1057103 0.054038,0.1869877 0.1350954,0.1940793 0,0 0.06632,0.0058 0.06632,0.0058 0,0 0,0.6597812 0,0.6597812 0,0.4009721 0.1891338,0.6325859 0.4372182,0.6542905 0.1350955,0.011819 0.2136965,-0.032336 0.3365107,-0.1929164 0,0 0,0.1749696 0,0.1749696 0,0 0.2333467,0.020415 0.2333467,0.020415 0.08597,0.00752 0.1621146,-0.018624 0.1621146,-0.1680768 0,-0.1166458 -0.054039,-0.1869876 -0.1498331,-0.1953686 0,0 0,-1.2284325 0,-1.2284325 0,0 -0.3315982,-0.029011 -0.3315982,-0.029011 -0.090883,-0.00795 -0.1621146,0.018624 -0.1621146,0.1680769 0,0.069259 0.027019,0.1846238 0.1375519,0.1942942 0,0 0,0 0,0"
         inkscape:connector-curvature="0" />
      <path
         id="path7399"
         style="font-style:normal;font-variant:normal;font-weight:bold;font-stretch:normal;font-size:2.11666679px;font-family:FreeMono;-inkscape-font-specification:'FreeMono Bold';fill:#fcf9f4;fill-opacity:1;stroke:#e1d2be;stroke-width:0.07272552;stroke-linecap:round;stroke-linejoin:bevel;stroke-miterlimit:4;stroke-dasharray:none;stroke-dashoffset:0.72725523;stroke-opacity:1"
         d="m 7.1060095,3.1946079 c 0,0 0,-0.134873 0,-0.134873 0,-0.1676797 -0.036844,-0.2438066 -0.1154449,-0.2506833 -0.036844,-0.00322 -0.058951,0.02036 -0.078601,0.087898 C 6.816169,2.822955 6.7154615,2.7849832 6.5951036,2.7744533 6.3003498,2.7486657 6.0891095,2.9379609 6.0891095,3.2295768 c 0,0.2879709 0.1449207,0.4464578 0.4888001,0.5312214 0.073689,0.017383 0.3094915,0.06353 0.3094915,0.2166274 0,0.083839 -0.1301829,0.1453547 -0.2873849,0.1316013 C 6.467377,4.0974224 6.3642131,4.0410086 6.292981,3.940002 6.2708744,3.8287119 6.2315736,3.7742413 6.1677106,3.768654 6.0645468,3.7596284 6.0424402,3.8670503 6.0424402,4.0019227 c 0,0 0,0.1202916 0,0.1202916 0,0.1275814 0.01965,0.2423024 0.1252704,0.251543 0.031932,0.00279 0.051582,-0.00642 0.078601,-0.036866 0.098252,0.077855 0.2235217,0.1252659 0.3635298,0.137515 0.3168603,0.027722 0.5477509,-0.1671448 0.5477509,-0.4660512 0,-0.1676798 -0.063863,-0.3300102 -0.1719398,-0.4269505 C 6.7768681,3.388169 6.3593002,3.4136044 6.3593002,3.2459258 c 0,-0.065614 0.1179016,-0.1172664 0.2431719,-0.1063066 C 6.9267013,3.1679852 6.8431877,3.4121978 6.9831958,3.424447 7.083903,3.433257 7.10601,3.333126 7.10601,3.1946086 c 0,0 -5e-7,-7e-7 -5e-7,-7e-7"
         inkscape:connector-curvature="0" />
      <path
         id="path7401"
         style="font-style:normal;font-variant:normal;font-weight:bold;font-stretch:normal;font-size:2.11666679px;font-family:FreeMono;-inkscape-font-specification:'FreeMono Bold';fill:#fcf9f4;fill-opacity:1;stroke:#e1d2be;stroke-width:0.07272552;stroke-linecap:round;stroke-linejoin:bevel;stroke-miterlimit:4;stroke-dasharray:none;stroke-dashoffset:0.72725523;stroke-opacity:1"
         d="m 8.2334389,3.3296971 c 0,0 0.024563,0.00215 0.024563,0.00215 0,0 0.085969,0.00752 0.085969,0.00752 0,0 0,0.6634265 0,0.6634265 C 8.2162449,4.1921053 8.1548379,4.2341204 8.0320237,4.2233755 7.8846468,4.2104817 7.815871,4.1206256 7.815871,3.9420102 c 0,0 0,-1.0133656 0,-1.0133656 0,0 -0.2849287,-0.024928 -0.2849287,-0.024928 -0.095795,-0.00838 -0.1621146,0.018624 -0.1621146,0.168077 0,0.1057102 0.054038,0.1869877 0.1350955,0.1940792 0,0 0.06632,0.0058 0.06632,0.0058 0,0 0,0.6597813 0,0.6597813 0,0.400972 0.1891337,0.6325858 0.4372182,0.6542904 0.1350954,0.011819 0.2136965,-0.032336 0.3365106,-0.1929164 0,0 0,0.1749696 0,0.1749696 0,0 0.2333468,0.020415 0.2333468,0.020415 0.08597,0.00752 0.1621146,-0.018624 0.1621146,-0.1680767 0,-0.1166458 -0.054039,-0.1869877 -0.1498332,-0.1953687 0,0 0,-1.2284325 0,-1.2284325 0,0 -0.331598,-0.029011 -0.331598,-0.029011 -0.090883,-0.00795 -0.1621146,0.018624 -0.1621146,0.1680769 0,0.069259 0.027019,0.1846238 0.1375517,0.1942942 0,0 0,0 0,0"
         inkscape:connector-curvature="0" />
      <path
         id="path7403"
         style="font-style:normal;font-variant:normal;font-weight:bold;font-stretch:normal;font-size:2.11666679px;font-family:FreeMono;-inkscape-font-specification:'FreeMono Bold';fill:#fcf9f4;fill-opacity:1;stroke:#e1d2be;stroke-width:0.07272552;stroke-linecap:round;stroke-linejoin:bevel;stroke-miterlimit:4;stroke-dasharray:none;stroke-dashoffset:0.72725523;stroke-opacity:1"
         d="m 9.9037073,3.0675642 c -0.1203579,-0.01053 -0.2136966,0.043272 -0.4101992,0.2447927 0,0 0,-0.2369381 0,-0.2369381 0,0 -0.331598,-0.029011 -0.331598,-0.029011 -0.108076,-0.00946 -0.1621146,0.055076 -0.1621146,0.168077 0,0.138517 0.06632,0.1880621 0.1621146,0.1964431 0,0 0.085969,0.00752 0.085969,0.00752 0,0 0,0.8639126 0,0.8639126 0,0 -0.1424639,-0.012464 -0.1424639,-0.012464 -0.095795,-0.00838 -0.1621146,0.018624 -0.1621146,0.1680767 0,0.138517 0.068776,0.1882771 0.1621146,0.1964432 0,0 0.7295157,0.063824 0.7295157,0.063824 0.090883,0.00795 0.164571,-0.022055 0.164571,-0.1678618 0,-0.1494527 -0.071232,-0.1884919 -0.164571,-0.1966581 0,0 -0.3414232,-0.029871 -0.3414232,-0.029871 0,0 0,-0.5358446 0,-0.5358446 0.2333469,-0.2639103 0.3266855,-0.3432291 0.4052865,-0.3363524 0.081057,0.00709 0.1105328,0.1408976 0.1915908,0.1479892 0.06632,0.0058 0.122814,-0.073094 0.122814,-0.1751604 0,-0.1676797 -0.181765,-0.3257444 -0.3094921,-0.336919 0,0 0,0 0,0"
         inkscape:connector-curvature="0" />
      <path
         id="path7405"
         style="font-style:normal;font-variant:normal;font-weight:bold;font-stretch:normal;font-size:2.11666679px;font-family:FreeMono;-inkscape-font-specification:'FreeMono Bold';fill:#fcf9f4;fill-opacity:1;stroke:#e1d2be;stroke-width:0.07272552;stroke-linecap:round;stroke-linejoin:bevel;stroke-miterlimit:4;stroke-dasharray:none;stroke-dashoffset:0.72725523;stroke-opacity:1"
         d="m 10.340922,4.5602504 c 0,0.138517 0.06632,0.1880622 0.162115,0.1964432 0,0 0.275104,0.024068 0.275104,0.024068 0.08597,0.00752 0.162114,-0.018624 0.162114,-0.1680767 0,-0.1530984 -0.07615,-0.1889221 -0.162114,-0.1964431 0,0 -0.01474,-0.00129 -0.01474,-0.00129 0,0 0,-0.6634265 0,-0.6634265 0.115441,-0.1758054 0.194045,-0.2308967 0.307035,-0.2210115 0.152289,0.013324 0.221065,0.1031798 0.221065,0.2817951 0,0 0,0.6488457 0,0.6488457 -0.0958,-0.00838 -0.149833,0.052505 -0.149833,0.1691512 0,0.1202916 0.05404,0.186988 0.164571,0.196658 0,0 0.218609,0.019126 0.218609,0.019126 0.09089,0.00795 0.162114,-0.022269 0.162114,-0.1680767 0,-0.1166459 -0.05404,-0.186988 -0.149832,-0.1953686 0,0 0,-0.6634265 0,-0.6634265 0,-0.4009719 -0.19159,-0.6291555 -0.437219,-0.6506452 -0.135096,-0.011819 -0.218608,0.035552 -0.33651,0.1929164 0,0 0,-0.1749698 0,-0.1749698 0,0 -0.230891,-0.0202 -0.230891,-0.0202 -0.0958,-0.00838 -0.164571,0.036634 -0.164571,0.167862 0,0.1166458 0.05404,0.1833426 0.149833,0.1953686 0,0 0,0.8639126 0,0.8639126 0,0 -0.01474,-0.00129 -0.01474,-0.00129 -0.08843,-0.00774 -0.162115,0.018624 -0.162115,0.1680767 0,0 0,0 0,0"
         inkscape:connector-curvature="0" />
      <path
         id="path7407"
         style="font-style:normal;font-variant:normal;font-weight:bold;font-stretch:normal;font-size:2.11666679px;font-family:FreeMono;-inkscape-font-specification:'FreeMono Bold';fill:#fcf9f4;fill-opacity:1;stroke:#e1d2be;stroke-width:0.07272552;stroke-linecap:round;stroke-linejoin:bevel;stroke-miterlimit:4;stroke-dasharray:none;stroke-dashoffset:0.72725523;stroke-opacity:1"
         d="m 12.502446,3.2912793 c -0.363529,-0.031805 -0.64109,0.312077 -0.64109,0.7932434 0,0.4738761 0.280016,0.8738299 0.633721,0.9047751 0.353705,0.030945 0.633721,-0.3200123 0.633721,-0.7938883 0,-0.4702308 -0.280016,-0.8738298 -0.626352,-0.9041302 0,0 0,0 0,0 m -0.0024,0.3643068 c 0.213696,0.018696 0.38318,0.2485907 0.38318,0.5183354 0,0.2733901 -0.169484,0.4699837 -0.388093,0.4508579 -0.218609,-0.019126 -0.388093,-0.2453752 -0.388093,-0.5187653 0,-0.2770351 0.169484,-0.4699836 0.393006,-0.450428 0,0 0,0 0,0"
         inkscape:connector-curvature="0" />
      <path
         id="path7409"
         style="font-style:normal;font-variant:normal;font-weight:bold;font-stretch:normal;font-size:2.11666679px;font-family:FreeMono;-inkscape-font-specification:'FreeMono Bold';fill:#fcf9f4;fill-opacity:1;stroke:#e1d2be;stroke-width:0.07272552;stroke-linecap:round;stroke-linejoin:bevel;stroke-miterlimit:4;stroke-dasharray:none;stroke-dashoffset:0.72725523;stroke-opacity:1"
         d="m 14.128501,3.8454482 c 0,0 0.02457,0.00215 0.02457,0.00215 0,0 0.08597,0.00752 0.08597,0.00752 0,0 0,0.6634265 0,0.6634265 -0.127726,0.1893115 -0.189133,0.2313265 -0.311947,0.2205817 -0.147377,-0.012894 -0.216153,-0.10275 -0.216153,-0.2813653 0,0 0,-1.0133657 0,-1.0133657 0,0 -0.284928,-0.024928 -0.284928,-0.024928 -0.0958,-0.00838 -0.162115,0.018624 -0.162115,0.1680769 0,0.1057102 0.05404,0.186988 0.135095,0.1940792 0,0 0.06632,0.0058 0.06632,0.0058 0,0 0,0.6597813 0,0.6597813 0,0.4009721 0.189134,0.6325859 0.437218,0.6542905 0.135096,0.011819 0.213697,-0.032336 0.33651,-0.1929165 0,0 0,0.1749696 0,0.1749696 0,0 0.233348,0.020415 0.233348,0.020415 0.08597,0.00752 0.162115,-0.018624 0.162115,-0.1680767 0,-0.1166459 -0.05404,-0.186988 -0.149834,-0.1953687 0,0 0,-1.2284326 0,-1.2284326 0,0 -0.331598,-0.029011 -0.331598,-0.029011 -0.09089,-0.00795 -0.162115,0.018624 -0.162115,0.1680769 0,0.069259 0.02702,0.1846235 0.137552,0.1942942 0,0 0,0 0,0"
         inkscape:connector-curvature="0" />
      <path
         id="path7411"
         style="font-style:normal;font-variant:normal;font-weight:bold;font-stretch:normal;font-size:2.11666679px;font-family:FreeMono;-inkscape-font-specification:'FreeMono Bold';fill:#fcf9f4;fill-opacity:1;stroke:#e1d2be;stroke-width:0.07272552;stroke-linecap:round;stroke-linejoin:bevel;stroke-miterlimit:4;stroke-dasharray:none;stroke-dashoffset:0.72725523;stroke-opacity:1"
         d="m 15.05206,5.7014617 c 0,0.138517 0.06632,0.1880621 0.162114,0.1964431 0,0 0.275103,0.024068 0.275103,0.024068 0.267735,0.023424 0.469151,-0.2286994 0.469151,-0.6150906 0,0 0,-1.3013366 0,-1.3013366 0,0 0.0393,0.00344 0.0393,0.00344 0.09089,0.00795 0.162115,-0.018624 0.162115,-0.1680767 0,-0.1458086 -0.06632,-0.1880624 -0.162115,-0.1964433 0,0 -0.284928,-0.024928 -0.284928,-0.024928 0,0 0,0.1312272 0,0.1312272 -0.0958,-0.1286726 -0.213697,-0.2009562 -0.346336,-0.2125606 -0.329141,-0.028796 -0.579683,0.3138043 -0.579683,0.798616 0,0.4811664 0.250542,0.867606 0.579683,0.8964021 0.127727,0.011175 0.233346,-0.034263 0.346336,-0.1483144 0,0 0,0.2004863 0,0.2004863 0,0.1895502 -0.09089,0.2836644 -0.230891,0.2714156 0,0 -0.267734,-0.023424 -0.267734,-0.023424 -0.09579,-0.00838 -0.162115,0.018624 -0.162115,0.1680769 0,0 -4e-6,-4e-7 -4e-6,-4e-7 m 0.319315,-1.7983088 c 0.19159,0.016762 0.341424,0.2449374 0.341424,0.5183274 0,0.2624546 -0.154746,0.4639828 -0.341424,0.4476506 -0.186676,-0.016332 -0.338966,-0.2447225 -0.338966,-0.5144674 0,-0.2660997 0.15229,-0.4678427 0.338966,-0.4515106 0,0 0,0 0,0"
         inkscape:connector-curvature="0" />
      <path
         id="path7413"
         style="font-style:normal;font-variant:normal;font-weight:bold;font-stretch:normal;font-size:2.11666679px;font-family:FreeMono;-inkscape-font-specification:'FreeMono Bold';fill:#fcf9f4;fill-opacity:1;stroke:#e1d2be;stroke-width:0.07272552;stroke-linecap:round;stroke-linejoin:bevel;stroke-miterlimit:4;stroke-dasharray:none;stroke-dashoffset:0.72725523;stroke-opacity:1"
         d="m 16.282653,4.8285658 c 0,0.2697447 0.198959,0.5095086 0.442131,0.5307834 0.14492,0.012679 0.289842,-0.025674 0.407743,-0.1064899 0,0 0,0.083839 0,0.083839 0,0 0.287385,0.025143 0.287385,0.025143 0.09089,0.00795 0.162115,-0.022269 0.162115,-0.1680768 0,-0.1458085 -0.06632,-0.1880621 -0.162115,-0.1964431 0,0 -0.0393,-0.00344 -0.0393,-0.00344 0,0 0,-0.7363299 0,-0.7363299 0,-0.3390036 -0.181765,-0.555392 -0.483887,-0.5818243 -0.122815,-0.010745 -0.30458,0.020741 -0.422481,0.072394 -0.04912,0.021219 -0.07369,0.070102 -0.07369,0.1466515 0,0.1057102 0.05158,0.190418 0.120359,0.1964352 0.0786,0.00688 0.206327,-0.065788 0.38318,-0.050315 0.157201,0.013753 0.228434,0.074663 0.228434,0.1986 0,0 0,0.083839 0,0.083839 -0.100704,-0.034327 -0.176852,-0.051925 -0.255454,-0.058802 -0.368443,-0.032235 -0.59442,0.2469014 -0.59442,0.5640338 0,0 3e-6,1e-6 3e-6,1e-6 m 0.85233,0.016245 c -0.135095,0.1121181 -0.272647,0.1620516 -0.405287,0.1504472 -0.105624,-0.00924 -0.186676,-0.0783 -0.186676,-0.1584949 0,-0.138517 0.152289,-0.2527761 0.319316,-0.2381631 0.08352,0.00731 0.174396,0.029844 0.272647,0.06395 0,0 0,0.1822606 0,0.1822606"
         inkscape:connector-curvature="0" />
      <path
         id="path7415"
         style="font-style:normal;font-variant:normal;font-weight:bold;font-stretch:normal;font-size:2.11666679px;font-family:FreeMono;-inkscape-font-specification:'FreeMono Bold';fill:#fcf9f4;fill-opacity:1;stroke:#e1d2be;stroke-width:0.07272552;stroke-linecap:round;stroke-linejoin:bevel;stroke-miterlimit:4;stroke-dasharray:none;stroke-dashoffset:0.72725523;stroke-opacity:1"
         d="m 18.178899,4.9142713 c 0,0 0,-0.7144592 0,-0.7144592 0,0 0.444587,0.038896 0.444587,0.038896 0.09089,0.00795 0.162115,-0.022269 0.162115,-0.1680767 0,-0.1494526 -0.06878,-0.1882776 -0.162115,-0.1964433 0,0 -0.444587,-0.038896 -0.444587,-0.038896 0,0 0,-0.3207774 0,-0.3207774 0,-0.1421628 -0.02211,-0.2425173 -0.122814,-0.2513281 -0.103164,-0.00903 -0.122814,0.102257 -0.122814,0.2298384 0,0 0,0.3207775 0,0.3207775 0,0 -0.08597,-0.00752 -0.08597,-0.00752 -0.09579,-0.00838 -0.162114,0.018624 -0.162114,0.1680769 0,0.1458086 0.07123,0.1884916 0.162114,0.1964431 0,0 0.08597,0.00752 0.08597,0.00752 0,0 0,0.7837181 0,0.7837181 0,0.309842 0.174396,0.5182952 0.454412,0.5427934 0.186678,0.016332 0.564945,-0.074511 0.564945,-0.2932226 0,-0.1020661 -0.05158,-0.190418 -0.117902,-0.1962202 -0.08597,-0.00752 -0.16457,0.149636 -0.444586,0.1251377 -0.181766,-0.015902 -0.211241,-0.08774 -0.211241,-0.2262576 0,0 0,0 0,0"
         inkscape:connector-curvature="0" />
    </g>
    <text
       xml:space="preserve"
       style="font-style:normal;font-weight:normal;font-size:3.05253172px;line-height:1.25;font-family:sans-serif;letter-spacing:0px;word-spacing:0px;fill:#000000;fill-opacity:1;stroke:#b89466;stroke-width:0.0563;stroke-miterlimit:4;stroke-dasharray:none;stroke-opacity:1"
       x="-6.7044702"
       y="20.589136"
       id="text7576"><tspan
         sodipodi:role="line"
         id="tspan7574"
         x="-6.7044702"
         y="20.589136"
         style="font-style:normal;font-variant:normal;font-weight:normal;font-stretch:normal;font-family:'DejaVu Sans';-inkscape-font-specification:'DejaVu Sans';letter-spacing:-0.14194269px;fill:#ffffff;fill-opacity:1;stroke:#b89466;stroke-width:0.0563;stroke-miterlimit:4;stroke-dasharray:none;stroke-opacity:1">Klausurnougat</tspan></text>
  </g>
</svg>
